Coordinates
version=1
nRows=17
nColumns=40
inDegrees=yes

Units are S.I. units (second, meters, Newtons, ...)
If the header above contains a line with 'inDegrees', this indicates whether rotational values are in degrees (yes) or radians (no).

endheader
time	pelvis_tilt	pelvis_list	pelvis_rotation	pelvis_tx	pelvis_ty	pelvis_tz	hip_flexion_r	hip_adduction_r	hip_rotation_r	knee_angle_r	knee_angle_r_beta	ankle_angle_r	subtalar_angle_r	mtp_angle_r	hip_flexion_l	hip_adduction_l	hip_rotation_l	knee_angle_l	knee_angle_l_beta	ankle_angle_l	subtalar_angle_l	mtp_angle_l	lumbar_extension	lumbar_bending	lumbar_rotation	arm_flex_r	arm_add_r	arm_rot_r	elbow_flex_r	pro_sup_r	wrist_flex_r	wrist_dev_r	arm_flex_l	arm_add_l	arm_rot_l	elbow_flex_l	pro_sup_l	wrist_flex_l	wrist_dev_l
      4.01000000	      4.00112036	     -2.79688382	      3.44020869	     -0.25841174	      1.36080492	     -0.86922952	     -7.08203036	     -7.31859465	     -8.62501466	     14.15728161	      0.24709118	    -16.28391377	      0.00000000	      0.00000000	     -5.34548579	    -14.73296001	     -1.41725144	     11.87899222	      0.20732753	    -21.61681560	      0.00000000	      0.00000000	     -4.12094204	     -0.11932284	     -2.86743576	    -29.84132989	    -55.02100148	     27.49296390	    111.26145056	     87.96717821	      0.00000000	      0.00000000	    -27.05092569	    -56.59178008	     42.36172699	     98.98364004	     88.19099913	      0.00000000	      0.00000000
      4.01500000	      3.87970597	     -2.82187144	      3.59162280	     -0.25997278	      1.35130738	     -0.86956449	     -6.71671802	     -7.42344165	     -9.07898480	     14.40333461	      0.25138561	    -15.48142850	      0.00000000	      0.00000000	     -4.86250015	    -14.80377477	     -1.14872716	     12.01052797	      0.20962326	    -21.02440235	      0.00000000	      0.00000000	     -4.31041820	     -0.08955124	     -2.80053450	    -30.08337055	    -54.83837197	     27.13487605	    111.25672524	     87.99724264	      0.00000000	      0.00000000	    -27.13829236	    -56.50470147	     42.15222285	     98.95500456	     88.20235153	      0.00000000	      0.00000000
      4.02000000	      3.91138598	     -2.87807471	      3.75242890	     -0.26133629	      1.34167959	     -0.86998441	     -6.57855702	     -7.49419871	     -9.71004627	     14.51374706	      0.25331267	    -14.74863155	      0.00000000	      0.00000000	     -4.52860453	    -14.93132608	     -0.86445060	     12.16287650	      0.21228224	    -20.44094627	      0.00000000	      0.00000000	     -4.63435507	     -0.00089096	     -2.73587584	    -30.31255909	    -54.81563027	     26.96888969	    111.32409865	     87.98691634	      0.00000000	      0.00000000	    -27.14825148	    -56.45624326	     42.04419816	     98.94584653	     88.17881505	      0.00000000	      0.00000000
      4.02500000	      3.67880232	     -2.92529462	      3.87725422	     -0.26317947	      1.33169393	     -0.87032304	     -6.04987967	     -7.60007903	    -10.12802968	     14.75172493	      0.25746617	    -14.02101551	      0.00000000	      0.00000000	     -3.85390437	    -15.02201202	     -0.61294933	     12.39793419	      0.21638477	    -19.88665040	      0.00000000	      0.00000000	     -4.74021679	      0.05938160	     -2.67663894	    -30.38125320	    -54.64602505	     26.70695310	    111.23882990	     87.96991137	      0.00000000	      0.00000000	    -27.25269628	    -56.29803611	     41.82375056	     98.83779325	     88.19521944	      0.00000000	      0.00000000
      4.03000000	      3.54098261	     -2.87926057	      3.90879375	     -0.26474516	      1.32143337	     -0.87066306	     -5.62579969	     -7.82524395	    -10.54361599	     15.01386070	      0.26204130	    -13.30170346	      0.00000000	      0.00000000	     -3.34740148	    -15.00908752	     -0.56003338	     12.60230238	      0.21995167	    -19.46440390	      0.00000000	      0.00000000	     -4.92790210	      0.02743293	     -2.52113110	    -30.57610995	    -54.59331263	     26.52686220	    111.27876241	     87.97723530	      0.00000000	      0.00000000	    -27.31552157	    -56.17080900	     41.65155780	     98.73518845	     88.18856919	      0.00000000	      0.00000000
      4.03500000	      3.54052178	     -2.91658403	      4.00704424	     -0.26653723	      1.31111898	     -0.87094929	     -5.37381554	     -7.93012210	    -11.01791518	     15.18786963	      0.26507833	    -12.66486919	      0.00000000	      0.00000000	     -2.91788342	    -15.11905699	     -0.47586221	     12.82996019	      0.22392505	    -19.10182829	      0.00000000	      0.00000000	     -5.31139210	      0.10063517	     -2.40749453	    -30.73923497	    -54.45603180	     26.17112881	    111.31915818	     88.00538969	      0.00000000	      0.00000000	    -27.38691264	    -56.03387147	     41.43963576	     98.72210907	     88.20400107	      0.00000000	      0.00000000
      4.04000000	      3.45442567	     -2.91611671	      4.09157019	     -0.26834688	      1.30047000	     -0.87126474	     -5.02220355	     -8.09133531	    -11.50151967	     15.31361761	      0.26727305	    -12.12580618	      0.00000000	      0.00000000	     -2.37907279	    -15.17890682	     -0.54127577	     13.13233827	      0.22920254	    -18.84588603	      0.00000000	      0.00000000	     -5.58081155	      0.12182054	     -2.31937854	    -30.72468128	    -54.41512819	     26.14415384	    111.29661313	     87.90500206	      0.00000000	      0.00000000	    -27.47657171	    -55.92220903	     41.24328523	     98.60065870	     88.14947730	      0.00000000	      0.00000000
      4.04500000	      3.32928821	     -2.95098491	      4.24485481	     -0.27036456	      1.28951022	     -0.87169950	     -4.56429257	     -8.23276264	    -12.05315369	     15.63395231	      0.27286394	    -11.48315183	      0.00000000	      0.00000000	     -1.71113115	    -15.28381224	     -0.51331762	     13.46988439	      0.23509383	    -18.68754197	      0.00000000	      0.00000000	     -5.87082731	      0.19018535	     -2.29649405	    -30.77420032	    -54.37488598	     26.00906029	    111.39024009	     87.98757040	      0.00000000	      0.00000000	    -27.53924492	    -55.75881500	     41.01611519	     98.57633428	     88.19549820	      0.00000000	      0.00000000
      4.05000000	      3.18992663	     -2.92878320	      4.26225072	     -0.27211620	      1.27822781	     -0.87182137	     -4.07972619	     -8.42344641	    -12.45213873	     15.92835995	      0.27800233	    -10.94802975	      0.00000000	      0.00000000	     -1.10339849	    -15.33153721	     -0.69320198	     13.79998112	      0.24085511	    -18.64648955	      0.00000000	      0.00000000	     -6.09632466	      0.16581299	     -2.09621575	    -30.87133981	    -54.34249767	     25.96945613	    111.43642581	     87.96340493	      0.00000000	      0.00000000	    -27.58150189	    -55.68470598	     40.88005095	     98.53521398	     88.18988067	      0.00000000	      0.00000000
      4.05500000	      3.06426849	     -2.99520261	      4.35493461	     -0.27402889	      1.26678968	     -0.87208108	     -3.60106586	     -8.54228729	    -12.99062002	     16.24722602	      0.28356759	    -10.48530938	      0.00000000	      0.00000000	     -0.46676776	    -15.47257439	     -0.81481813	     14.12652662	      0.24655440	    -18.83940042	      0.00000000	      0.00000000	     -6.34593379	      0.25896044	     -2.04466303	    -30.86122279	    -54.33167793	     25.87769125	    111.45734609	     87.99336829	      0.00000000	      0.00000000	    -27.73403136	    -55.53284799	     40.62607241	     98.51847414	     88.19944985	      0.00000000	      0.00000000
      4.06000000	      3.04539839	     -3.00715273	      4.49012855	     -0.27602258	      1.25529405	     -0.87254877	     -3.25957141	     -8.71208227	    -13.57208685	     16.49480423	      0.28788864	    -10.08691744	      0.00000000	      0.00000000	      0.09087222	    -15.55605110	     -0.90733953	     14.49182469	      0.25293006	    -18.93744171	      0.00000000	      0.00000000	     -6.78477081	      0.31996144	     -2.03130340	    -30.88744512	    -54.33725395	     25.89374094	    111.51897864	     87.96842921	      0.00000000	      0.00000000	    -27.87998960	    -55.32998915	     40.31339883	     98.45252363	     88.14734680	      0.00000000	      0.00000000
      4.06500000	      2.90126047	     -3.04104433	      4.60644438	     -0.27816982	      1.24327231	     -0.87282953	     -2.69135731	     -8.91156266	    -14.29463832	     16.91537104	      0.29522892	     -9.44408744	      0.00000000	      0.00000000	      0.85561468	    -15.67351725	     -1.07197893	     14.99699810	      0.26174699	    -19.03870952	      0.00000000	      0.00000000	     -7.07187242	      0.37466759	     -1.99829061	    -30.84096224	    -54.37068267	     25.80891196	    111.62382912	     87.99022239	      0.00000000	      0.00000000	    -28.07212124	    -55.27300557	     40.01803659	     98.46572400	     88.18583386	      0.00000000	      0.00000000
      4.07000000	      2.82092013	     -2.99615414	      4.58167244	     -0.28036582	      1.23114059	     -0.87306803	     -2.16121158	     -9.17509645	    -14.65595918	     17.35494675	      0.30290096	     -8.92267050	      0.00000000	      0.00000000	      1.48053193	    -15.69005412	     -1.34957053	     15.51231492	      0.27074097	    -18.88999015	      0.00000000	      0.00000000	     -7.46545187	      0.36085035	     -1.84499158	    -30.81302585	    -54.40947749	     25.84059191	    111.68629781	     87.99621388	      0.00000000	      0.00000000	    -28.14567091	    -55.11212102	     39.81965517	     98.42958515	     88.17831842	      0.00000000	      0.00000000
      4.07500000	      2.68622121	     -3.06184490	      4.69656819	     -0.28258955	      1.21872578	     -0.87357123	     -1.57608481	     -9.33662814	    -15.20513402	     17.78641025	      0.31043142	     -8.60742991	      0.00000000	      0.00000000	      2.24449811	    -15.79954663	     -1.29827575	     16.06547226	      0.28039539	    -18.94045263	      0.00000000	      0.00000000	     -7.78697056	      0.49757182	     -1.82052262	    -30.81483124	    -54.47061432	     25.80921634	    111.73278073	     87.91153434	      0.00000000	      0.00000000	    -28.34794957	    -54.89625453	     39.46981192	     98.38692273	     88.12408281	      0.00000000	      0.00000000
      4.08000000	      2.54574677	     -3.10969134	      4.74047669	     -0.28510756	      1.20612067	     -0.87380759	     -0.89673612	     -9.51690407	    -15.69404487	     18.36309260	      0.32049643	     -8.06111526	      0.00000000	      0.00000000	      3.09737082	    -15.93545142	     -1.57119879	     16.85307492	      0.29414165	    -18.54021569	      0.00000000	      0.00000000	     -8.18140583	      0.58610677	     -1.77390477	    -30.62083397	    -54.63166014	     25.89615121	    111.87022276	     87.95876470	      0.00000000	      0.00000000	    -28.54724811	    -54.74733821	     39.09563976	     98.34922887	     88.17288831	      0.00000000	      0.00000000
      4.08500000	      2.44499468	     -3.25270536	      4.81401472	     -0.28749006	      1.19319906	     -0.87416608	     -0.25701679	     -9.61968353	    -16.28774240	     18.94417251	      0.33063818	     -7.46559657	      0.00000000	      0.00000000	      3.89006674	    -16.14728176	     -1.67220606	     17.46807976	      0.30487551	    -18.10870998	      0.00000000	      0.00000000	     -8.57491051	      0.79189475	     -1.71573755	    -30.46530343	    -54.76245497	     26.04342023	    112.06659169	     87.93323351	      0.00000000	      0.00000000	    -28.77242557	    -54.62537234	     38.77494400	     98.34292738	     88.13410538	      0.00000000	      0.00000000
      4.09000000	      2.37400472	     -3.34060207	      4.90566677	     -0.29029597	      1.18016917	     -0.87469501	      0.37048277	     -9.76452490	    -16.68698327	     19.52139908	      0.34071269	     -7.06967776	      0.00000000	      0.00000000	      4.65774711	    -16.26189286	     -1.58287867	     18.10939722	      0.31606861	    -18.18371881	      0.00000000	      0.00000000	     -9.08753665	      0.98294564	     -1.71300964	    -30.35428065	    -54.99019606	     26.13632908	    112.15929511	     87.95575056	      0.00000000	      0.00000000	    -28.82129641	    -54.44278401	     38.57409962	     98.28487964	     88.18103855	      0.00000000	      0.00000000
